<?xml version="1.0" encoding="utf-8"?>
<!-- Generator: Adobe Illustrator 24.0.1, SVG Export Plug-In . SVG Version: 6.00 Build 0)  -->
<svg version="1.1" id="Layer_1" xmlns="http://www.w3.org/2000/svg" xmlns:xlink="http://www.w3.org/1999/xlink" x="0px" y="0px"
	 viewBox="0 0 625 113" style="enable-background:new 0 0 625 113;" xml:space="preserve">
<style type="text/css">
	.st0{enable-background:new    ;}
	.st1{fill:#262626;}
	.st2{fill:#3BBCA6;}
	.st3{opacity:0.3;clip-path:url(#SVGID_2_);}
	.st4{fill:#FFFFFF;}
	.st5{fill:none;stroke:#FFFFFF;stroke-width:1.5;stroke-miterlimit:10;}
</style>
<g class="st0">
	<path class="st1" d="M115.44,30.53h22.5c16.72,0,23.94,12.16,23.94,27.13c0,14.97-7.22,27.13-23.94,27.13h-22.5V30.53z
		 M124.94,77.05h9.35c14.9,0,18.09-8.51,18.09-19.38c0-10.87-3.19-19.38-18.09-19.38h-9.35V77.05z"/>
	<path class="st1" d="M175.86,67.39c0,6.16,3.34,11.63,10.56,11.63c5.02,0,8.06-2.2,9.58-6.54h8.21c-1.9,8.59-9.2,13.38-17.79,13.38
		c-12.31,0-19.23-8.59-19.23-20.67c0-11.17,7.3-20.75,19-20.75c12.39,0,19.99,11.17,18.54,22.95H175.86z M196.08,61.69
		c-0.3-5.47-4.03-10.41-9.88-10.41c-6,0-10.11,4.56-10.34,10.41H196.08z"/>
	<path class="st1" d="M218.12,67.39c0,6.16,3.34,11.63,10.56,11.63c5.02,0,8.06-2.2,9.58-6.54h8.21c-1.9,8.59-9.2,13.38-17.79,13.38
		c-12.31,0-19.23-8.59-19.23-20.67c0-11.17,7.3-20.75,19-20.75c12.39,0,19.99,11.17,18.54,22.95H218.12z M238.33,61.69
		c-0.3-5.47-4.03-10.41-9.88-10.41c-6,0-10.11,4.56-10.34,10.41H238.33z"/>
	<path class="st1" d="M253.83,45.51h8.21v5.32h0.15c2.43-4.48,7.14-6.38,12.16-6.38c12.39,0,18.39,9.42,18.39,20.9
		c0,10.56-5.32,20.52-16.95,20.52c-5.02,0-10.41-1.82-13.15-6.16h-0.15v19.61h-8.66V45.51z M273.22,51.28
		c-7.3,0-11.02,5.55-11.02,13.91c0,7.9,4.03,13.83,11.02,13.83c7.9,0,10.87-6.99,10.87-13.83
		C284.08,58.05,280.36,51.28,273.22,51.28z"/>
	<path class="st1" d="M301.26,30.53h9.5V84.8h-9.5V30.53z"/>
	<path class="st1" d="M321.17,45.51h8.21v5.78l0.15,0.15c2.58-4.33,7.07-6.99,12.24-6.99c8.51,0,13.91,4.56,13.91,13.38V84.8h-8.66
		V60.1c-0.15-6.16-2.58-8.82-7.68-8.82c-5.78,0-9.5,4.56-9.5,10.34V84.8h-8.67V45.51z"/>
	<path class="st1" d="M360.84,45.51h6.54V33.73h8.66v11.78h7.83v6.46h-7.83v20.98c0,3.57,0.3,5.4,4.18,5.4c1.22,0,2.43,0,3.65-0.3
		v6.69c-1.9,0.15-3.72,0.46-5.62,0.46c-9.04,0-10.72-3.5-10.87-10.03V51.97h-6.54V45.51z"/>
	<path class="st1" d="M424.61,84.8h-8.51v-5.47h-0.15c-2.13,3.95-6.84,6.54-11.17,6.54c-10.26,0-14.67-5.17-14.67-15.43V45.51h8.67
		V69.6c0,6.92,2.81,9.42,7.52,9.42c7.22,0,9.65-4.64,9.65-10.72v-22.8h8.66V84.8z"/>
	<path class="st1" d="M433.95,30.53h8.66v8.21h-8.66V30.53z M433.95,45.51h8.66V84.8h-8.66V45.51z"/>
	<path class="st1" d="M448.09,45.51h6.54V33.73h8.67v11.78h7.83v6.46h-7.83v20.98c0,3.57,0.3,5.4,4.18,5.4c1.22,0,2.43,0,3.65-0.3
		v6.69c-1.9,0.15-3.72,0.46-5.62,0.46c-9.04,0-10.72-3.5-10.87-10.03V51.97h-6.54V45.51z"/>
	<path class="st1" d="M477.58,30.53h8.67v8.21h-8.67V30.53z M477.58,45.51h8.67V84.8h-8.67V45.51z"/>
	<path class="st1" d="M493.84,65.12c0-12.01,7.22-20.67,19.84-20.67c12.62,0,19.84,8.67,19.84,20.67c0,12.08-7.22,20.75-19.84,20.75
		C501.06,85.86,493.84,77.2,493.84,65.12z M524.85,65.12c0-6.76-3.42-13.83-11.17-13.83c-7.75,0-11.17,7.07-11.17,13.83
		c0,6.84,3.42,13.91,11.17,13.91C521.43,79.02,524.85,71.96,524.85,65.12z"/>
	<path class="st1" d="M540.73,45.51h8.21v5.78l0.15,0.15c2.58-4.33,7.07-6.99,12.24-6.99c8.51,0,13.91,4.56,13.91,13.38V84.8h-8.67
		V60.1c-0.15-6.16-2.58-8.82-7.68-8.82c-5.78,0-9.5,4.56-9.5,10.34V84.8h-8.66V45.51z"/>
	<path class="st1" d="M590.89,72.18c0.46,5.02,4.26,6.84,8.89,6.84c3.27,0,8.97-0.68,8.74-5.17c-0.23-4.56-6.54-5.09-12.84-6.54
		c-6.38-1.37-12.62-3.65-12.62-11.63c0-8.59,9.27-11.25,16.42-11.25c8.06,0,15.35,3.34,16.42,12.08h-9.04
		c-0.76-4.1-4.18-5.24-7.98-5.24c-2.51,0-7.14,0.61-7.14,4.03c0,4.26,6.38,4.86,12.77,6.31c6.31,1.44,12.69,3.72,12.69,11.48
		c0,9.35-9.42,12.77-17.56,12.77c-9.88,0-17.25-4.41-17.41-13.68H590.89z"/>
</g>
<g>
	<g>
		<path class="st2" d="M55.45,5.68c-2.38-1.43-6.27-1.43-8.64,0L10.45,27.49c-2.38,1.43-4.32,4.86-4.32,7.63v43.92
			c0,2.77,1.94,6.21,4.32,7.63l36.36,21.81c2.38,1.43,6.27,1.43,8.64,0l36.35-21.8c2.38-1.43,4.32-4.86,4.32-7.63V35.12
			c0-2.77-1.94-6.21-4.32-7.63L55.45,5.68z"/>
	</g>
	<g>
		<g>
			<defs>
				<polygon id="SVGID_1_" points="50.95,57.37 50.95,111.37 95.95,84.37 95.95,30.37 				"/>
			</defs>
			<clipPath id="SVGID_2_">
				<use xlink:href="#SVGID_1_"  style="overflow:visible;"/>
			</clipPath>
			<g class="st3">
				<path d="M55.56,5.66c-2.38-1.43-6.27-1.43-8.64,0L10.56,27.48c-2.38,1.43-4.32,4.86-4.32,7.63v43.92c0,2.77,1.94,6.21,4.32,7.63
					l36.36,21.81c2.38,1.43,6.27,1.43,8.64,0l36.36-21.81c2.38-1.43,4.32-4.86,4.32-7.63V35.11c0-2.77-1.94-6.21-4.32-7.63
					L55.56,5.66z"/>
			</g>
		</g>
	</g>
	<circle class="st4" cx="23.2" cy="40.82" r="4.35"/>
	<circle class="st4" cx="53.82" cy="21.57" r="4.35"/>
	<circle class="st4" cx="82.69" cy="38.63" r="4.35"/>
	<circle class="st4" cx="83.04" cy="61.3" r="4.35"/>
	<circle class="st4" cx="51.55" cy="79.72" r="4.35"/>
	<line class="st5" x1="34.9" y1="8.26" x2="97.27" y2="48.2"/>
	<line class="st5" x1="67.84" y1="12.46" x2="3.37" y2="54.51"/>
	<line class="st5" x1="10.38" y1="22.62" x2="68.89" y2="102.86"/>
	<line class="st5" x1="20.89" y1="98.2" x2="103.63" y2="50.3"/>
	<line class="st5" x1="83.04" y1="9.04" x2="83.04" y2="94.19"/>
	<line class="st5" x1="4.07" y1="33.84" x2="96.57" y2="64.67"/>
	<line class="st5" x1="1.45" y1="41.89" x2="97.97" y2="38.04"/>
</g>
</svg>
