<?xml version="1.0" encoding="utf-8"?>
<!-- Generator: Adobe Illustrator 24.0.1, SVG Export Plug-In . SVG Version: 6.00 Build 0)  -->
<svg version="1.1" id="Layer_1" xmlns="http://www.w3.org/2000/svg" xmlns:xlink="http://www.w3.org/1999/xlink" x="0px" y="0px"
	 viewBox="0 0 579 113" style="enable-background:new 0 0 579 113;" xml:space="preserve">
<style type="text/css">
	.st0{fill:#262626;}
	.st1{fill:#3BBCA6;}
	.st2{opacity:0.3;clip-path:url(#SVGID_2_);}
	.st3{fill:#FFFFFF;}
	.st4{fill:#FFFFFF;stroke:#FFFFFF;stroke-width:1.5;stroke-miterlimit:10;}
</style>
<g>
	<path class="st0" d="M139.53,84.8h-18.2V32.33h18.35c7.05,0,12.97,2.33,17.76,6.99c4.78,4.66,7.18,11.11,7.18,19.35
		c0,8.19-2.42,14.59-7.25,19.2C152.53,82.49,146.58,84.8,139.53,84.8z M128.58,78.36h10.73c5.13,0,9.39-1.7,12.77-5.11
		c3.38-3.4,5.07-8.26,5.07-14.58c0-6.36-1.67-11.27-5-14.73c-3.33-3.45-7.56-5.18-12.69-5.18h-10.88V78.36z"/>
	<path class="st0" d="M196.66,72.59l5.99,2.07c-1.04,3.31-2.96,6.01-5.77,8.1s-6.22,3.14-10.21,3.14c-4.98,0-9.21-1.71-12.69-5.14
		c-3.48-3.43-5.22-8.05-5.22-13.88c0-5.43,1.68-9.92,5.03-13.47c3.35-3.55,7.35-5.33,11.99-5.33c5.38,0,9.57,1.69,12.58,5.07
		c3.01,3.38,4.51,7.91,4.51,13.58c0,0.89-0.05,1.63-0.15,2.22h-26.79c0.05,3.16,1.1,5.75,3.15,7.77c2.05,2.02,4.58,3.03,7.58,3.03
		C191.75,79.77,195.08,77.38,196.66,72.59z M176.16,63.34h19.46c-0.1-2.66-0.99-4.85-2.66-6.55c-1.68-1.7-4.05-2.55-7.1-2.55
		c-2.76,0-5.03,0.9-6.81,2.7C177.27,58.74,176.31,60.87,176.16,63.34z"/>
	<path class="st0" d="M234.54,72.59l5.99,2.07c-1.04,3.31-2.96,6.01-5.77,8.1c-2.81,2.1-6.22,3.14-10.21,3.14
		c-4.98,0-9.21-1.71-12.69-5.14c-3.48-3.43-5.22-8.05-5.22-13.88c0-5.43,1.68-9.92,5.03-13.47c3.35-3.55,7.35-5.33,11.99-5.33
		c5.38,0,9.57,1.69,12.58,5.07c3.01,3.38,4.51,7.91,4.51,13.58c0,0.89-0.05,1.63-0.15,2.22h-26.79c0.05,3.16,1.1,5.75,3.15,7.77
		c2.05,2.02,4.58,3.03,7.58,3.03C229.63,79.77,232.96,77.38,234.54,72.59z M214.04,63.34h19.46c-0.1-2.66-0.99-4.85-2.66-6.55
		c-1.68-1.7-4.05-2.55-7.1-2.55c-2.76,0-5.03,0.9-6.81,2.7C215.15,58.74,214.19,60.87,214.04,63.34z"/>
	<path class="st0" d="M254.3,98.86h-6.88V49.21h6.73v5.55c1.04-1.87,2.59-3.4,4.66-4.59c2.07-1.18,4.49-1.78,7.25-1.78
		c5.13,0,9.14,1.75,12.02,5.25c2.89,3.5,4.33,7.94,4.33,13.32c0,5.43-1.49,9.92-4.48,13.47c-2.99,3.55-7.02,5.33-12.1,5.33
		c-2.62,0-4.93-0.54-6.96-1.63c-2.02-1.08-3.55-2.47-4.59-4.14V98.86z M275.32,66.97c0-3.6-0.95-6.57-2.85-8.92
		c-1.9-2.34-4.45-3.52-7.66-3.52c-3.16,0-5.71,1.17-7.66,3.52c-1.95,2.34-2.92,5.32-2.92,8.92c0,3.7,0.97,6.72,2.92,9.06
		c1.95,2.34,4.5,3.52,7.66,3.52s5.7-1.17,7.62-3.52C274.35,73.69,275.32,70.67,275.32,66.97z"/>
	<path class="st0" d="M297.22,84.8h-7.4V32.33h7.4V84.8z"/>
	<path class="st0" d="M314.54,64.23V84.8h-6.96V49.21h6.81v5.11c2.37-4.09,6.02-6.14,10.95-6.14c4.09,0,7.24,1.31,9.44,3.92
		c2.19,2.62,3.29,5.99,3.29,10.14V84.8h-6.96V63.41c0-5.97-2.76-8.95-8.29-8.95c-2.62,0-4.65,0.92-6.11,2.77
		C315.26,59.08,314.54,61.42,314.54,64.23z"/>
	<path class="st0" d="M356.27,37.96v11.25h7.7v6.29h-7.7V74c0,1.68,0.38,2.91,1.15,3.7c0.76,0.79,2.04,1.18,3.81,1.18
		c1.04,0,1.95-0.1,2.74-0.3v5.92c-1.18,0.44-2.76,0.67-4.74,0.67c-3.06,0-5.48-0.89-7.25-2.66c-1.78-1.78-2.66-4.27-2.66-7.47V55.5
		h-6.81v-6.29h1.92c1.82,0,3.19-0.5,4.11-1.52c0.91-1.01,1.37-2.33,1.37-3.96v-5.77H356.27z"/>
	<path class="st0" d="M394.45,80.51c-0.94,1.78-2.37,3.12-4.29,4.03c-1.92,0.91-4,1.37-6.22,1.37c-4.05,0-7.28-1.34-9.69-4.03
		c-2.42-2.69-3.63-6.11-3.63-10.25V49.21h6.96v21.39c0,2.66,0.65,4.86,1.96,6.59c1.31,1.73,3.34,2.59,6.11,2.59
		c2.76,0,4.86-0.83,6.29-2.48c1.43-1.65,2.15-3.86,2.15-6.62V49.21h6.96v29.01c0,2.32,0.12,4.51,0.37,6.59h-6.66
		C394.55,83.71,394.45,82.28,394.45,80.51z"/>
	<path class="st0" d="M410.55,39.25c-0.96-0.96-1.44-2.13-1.44-3.52c0-1.38,0.48-2.56,1.44-3.55c0.96-0.99,2.13-1.48,3.52-1.48
		c1.38,0,2.56,0.48,3.55,1.44c0.99,0.96,1.48,2.16,1.48,3.59c0,1.38-0.49,2.55-1.48,3.52c-0.99,0.96-2.17,1.44-3.55,1.44
		C412.68,40.7,411.51,40.21,410.55,39.25z M417.54,84.8h-6.88V49.21h6.88V84.8z"/>
	<path class="st0" d="M436.49,37.96v11.25h7.7v6.29h-7.7V74c0,1.68,0.38,2.91,1.15,3.7c0.76,0.79,2.04,1.18,3.81,1.18
		c1.04,0,1.95-0.1,2.74-0.3v5.92c-1.18,0.44-2.76,0.67-4.74,0.67c-3.06,0-5.48-0.89-7.25-2.66c-1.78-1.78-2.66-4.27-2.66-7.47V55.5
		h-6.81v-6.29h1.92c1.82,0,3.19-0.5,4.11-1.52c0.91-1.01,1.37-2.33,1.37-3.96v-5.77H436.49z"/>
	<path class="st0" d="M451.1,39.25c-0.96-0.96-1.44-2.13-1.44-3.52c0-1.38,0.48-2.56,1.44-3.55c0.96-0.99,2.13-1.48,3.52-1.48
		c1.38,0,2.56,0.48,3.55,1.44c0.99,0.96,1.48,2.16,1.48,3.59c0,1.38-0.49,2.55-1.48,3.52c-0.99,0.96-2.17,1.44-3.55,1.44
		C453.23,40.7,452.06,40.21,451.1,39.25z M458.09,84.8h-6.88V49.21h6.88V84.8z"/>
	<path class="st0" d="M469.89,53.46c3.43-3.58,7.78-5.37,13.06-5.37c5.28,0,9.63,1.79,13.06,5.37c3.43,3.58,5.14,8.08,5.14,13.51
		c0,5.48-1.7,10-5.11,13.58c-3.4,3.58-7.77,5.36-13.1,5.36s-9.69-1.79-13.1-5.36c-3.4-3.58-5.11-8.1-5.11-13.58
		C464.75,61.54,466.47,57.04,469.89,53.46z M475.08,76.33c2.15,2.25,4.77,3.37,7.88,3.37s5.74-1.12,7.88-3.37
		c2.15-2.24,3.22-5.36,3.22-9.36c0-3.95-1.07-7.04-3.22-9.29c-2.15-2.24-4.77-3.37-7.88-3.37s-5.74,1.12-7.88,3.37
		c-2.15,2.25-3.22,5.34-3.22,9.29C471.86,70.96,472.93,74.08,475.08,76.33z"/>
	<path class="st0" d="M514.78,64.23V84.8h-6.96V49.21h6.81v5.11c2.37-4.09,6.02-6.14,10.95-6.14c4.09,0,7.24,1.31,9.44,3.92
		c2.19,2.62,3.29,5.99,3.29,10.14V84.8h-6.96V63.41c0-5.97-2.76-8.95-8.29-8.95c-2.62,0-4.65,0.92-6.11,2.77
		C515.5,59.08,514.78,61.42,514.78,64.23z"/>
	<path class="st0" d="M543.86,75.55l6.29-2.22c0.25,1.92,1.08,3.52,2.52,4.77c1.43,1.26,3.35,1.89,5.77,1.89
		c1.87,0,3.35-0.46,4.44-1.37c1.08-0.91,1.63-2.03,1.63-3.37c0-2.37-1.53-3.9-4.59-4.59l-6.07-1.33c-2.76-0.59-4.93-1.78-6.51-3.55
		c-1.58-1.78-2.37-3.92-2.37-6.44c0-3.06,1.25-5.7,3.74-7.92s5.46-3.33,8.92-3.33c2.27,0,4.29,0.33,6.07,1
		c1.78,0.67,3.16,1.54,4.14,2.63c0.99,1.09,1.73,2.1,2.22,3.03c0.49,0.94,0.86,1.9,1.11,2.89l-6.14,2.29
		c-0.1-0.59-0.27-1.17-0.52-1.74c-0.25-0.57-0.63-1.2-1.15-1.89c-0.52-0.69-1.27-1.25-2.26-1.66c-0.99-0.42-2.15-0.63-3.48-0.63
		c-1.73,0-3.14,0.47-4.25,1.41c-1.11,0.94-1.67,2.05-1.67,3.33c0,2.27,1.36,3.7,4.07,4.29l5.77,1.26c3.16,0.69,5.59,1.96,7.29,3.81
		c1.7,1.85,2.55,4.11,2.55,6.77c0,2.81-1.15,5.35-3.44,7.62c-2.29,2.27-5.49,3.4-9.58,3.4c-4.39,0-7.82-1.1-10.29-3.29
		C545.61,80.42,544.2,78.07,543.86,75.55z"/>
</g>
<g>
	<g>
		<path class="st1" d="M55.45,5.68c-2.38-1.43-6.27-1.43-8.64,0L10.45,27.49c-2.38,1.43-4.32,4.86-4.32,7.63v43.92
			c0,2.77,1.94,6.21,4.32,7.63l36.36,21.81c2.38,1.43,6.27,1.43,8.64,0L91.8,86.68c2.38-1.43,4.32-4.86,4.32-7.63V35.12
			c0-2.77-1.94-6.21-4.32-7.63L55.45,5.68z"/>
	</g>
	<g>
		<defs>
			<polygon id="SVGID_1_" points="50.95,57.37 50.95,111.37 95.95,84.37 95.95,30.37 			"/>
		</defs>
		<clipPath id="SVGID_2_">
			<use xlink:href="#SVGID_1_"  style="overflow:visible;"/>
		</clipPath>
		<g class="st2">
			<path d="M55.56,5.66c-2.38-1.43-6.27-1.43-8.64,0L10.56,27.48c-2.38,1.43-4.32,4.86-4.32,7.63v43.92c0,2.77,1.94,6.21,4.32,7.63
				l36.36,21.81c2.38,1.43,6.27,1.43,8.64,0l36.36-21.81c2.38-1.43,4.32-4.86,4.32-7.63V35.11c0-2.77-1.94-6.21-4.32-7.63
				L55.56,5.66z"/>
		</g>
	</g>
	<circle class="st3" cx="23.2" cy="40.82" r="4.35"/>
	<circle class="st3" cx="53.82" cy="21.57" r="4.35"/>
	<circle class="st3" cx="82.69" cy="38.63" r="4.35"/>
	<circle class="st3" cx="83.04" cy="61.3" r="4.35"/>
	<circle class="st3" cx="51.55" cy="79.72" r="4.35"/>
	<line class="st4" x1="34.9" y1="8.26" x2="97.27" y2="48.2"/>
	<line class="st4" x1="67.84" y1="12.46" x2="3.37" y2="54.51"/>
	<line class="st4" x1="10.38" y1="22.62" x2="68.89" y2="102.86"/>
	<line class="st4" x1="20.89" y1="98.2" x2="103.63" y2="50.3"/>
	<line class="st4" x1="83.04" y1="9.04" x2="83.04" y2="94.19"/>
	<line class="st4" x1="4.07" y1="33.84" x2="96.57" y2="64.67"/>
	<line class="st4" x1="1.45" y1="41.89" x2="97.97" y2="38.04"/>
</g>
</svg>
