<?xml version="1.0" encoding="utf-8"?>
<!-- Generator: Adobe Illustrator 24.0.1, SVG Export Plug-In . SVG Version: 6.00 Build 0)  -->
<svg version="1.1" id="Layer_1" xmlns="http://www.w3.org/2000/svg" xmlns:xlink="http://www.w3.org/1999/xlink" x="0px" y="0px"
	 viewBox="0 0 625 113" style="enable-background:new 0 0 625 113;" xml:space="preserve">
<style type="text/css">
	.st0{enable-background:new    ;}
	.st1{fill:#262626;}
	.st2{fill:#3BBCA6;}
	.st3{opacity:0.3;clip-path:url(#SVGID_2_);}
	.st4{fill:#FFFFFF;}
	.st5{fill:none;stroke:#FFFFFF;stroke-width:1.5;stroke-miterlimit:10;}
</style>
<g class="st0">
	<path class="st1" d="M143.54,84.8h-19.68V28.08h19.84c7.63,0,14.03,2.52,19.2,7.56c5.17,5.04,7.76,12.01,7.76,20.92
		c0,8.85-2.61,15.77-7.84,20.76C157.6,82.31,151.17,84.8,143.54,84.8z M131.7,77.84h11.6c5.55,0,10.15-1.84,13.8-5.52
		c3.65-3.68,5.48-8.93,5.48-15.76c0-6.88-1.8-12.19-5.4-15.92c-3.6-3.73-8.17-5.6-13.72-5.6H131.7V77.84z"/>
	<path class="st1" d="M205.7,71.6l6.48,2.24c-1.12,3.57-3.2,6.49-6.24,8.76c-3.04,2.27-6.72,3.4-11.04,3.4
		c-5.39,0-9.96-1.85-13.72-5.56c-3.76-3.71-5.64-8.71-5.64-15c0-5.87,1.81-10.72,5.44-14.56c3.63-3.84,7.95-5.76,12.96-5.76
		c5.81,0,10.35,1.83,13.6,5.48c3.25,3.65,4.88,8.55,4.88,14.68c0,0.96-0.05,1.76-0.16,2.4H183.3c0.05,3.41,1.19,6.21,3.4,8.4
		c2.21,2.19,4.95,3.28,8.2,3.28C200.4,79.36,204,76.77,205.7,71.6z M183.54,61.6h21.04c-0.11-2.88-1.07-5.24-2.88-7.08
		c-1.81-1.84-4.37-2.76-7.68-2.76c-2.99,0-5.44,0.97-7.36,2.92C184.74,56.63,183.7,58.93,183.54,61.6z"/>
	<path class="st1" d="M247.06,71.6l6.48,2.24c-1.12,3.57-3.2,6.49-6.24,8.76c-3.04,2.27-6.72,3.4-11.04,3.4
		c-5.39,0-9.96-1.85-13.72-5.56c-3.76-3.71-5.64-8.71-5.64-15c0-5.87,1.81-10.72,5.44-14.56c3.63-3.84,7.95-5.76,12.96-5.76
		c5.81,0,10.35,1.83,13.6,5.48c3.25,3.65,4.88,8.55,4.88,14.68c0,0.96-0.05,1.76-0.16,2.4h-28.96c0.05,3.41,1.19,6.21,3.4,8.4
		c2.21,2.19,4.95,3.28,8.2,3.28C241.75,79.36,245.35,76.77,247.06,71.6z M224.9,61.6h21.04c-0.11-2.88-1.07-5.24-2.88-7.08
		c-1.81-1.84-4.37-2.76-7.68-2.76c-2.99,0-5.44,0.97-7.36,2.92C226.1,56.63,225.06,58.93,224.9,61.6z"/>
	<path class="st1" d="M268.82,100h-7.44V46.32h7.28v6c1.12-2.03,2.8-3.68,5.04-4.96c2.24-1.28,4.85-1.92,7.84-1.92
		c5.55,0,9.88,1.89,13,5.68c3.12,3.79,4.68,8.59,4.68,14.4c0,5.87-1.61,10.72-4.84,14.56c-3.23,3.84-7.59,5.76-13.08,5.76
		c-2.83,0-5.33-0.59-7.52-1.76c-2.19-1.17-3.84-2.67-4.96-4.48V100z M291.54,65.52c0-3.89-1.03-7.11-3.08-9.64
		c-2.05-2.53-4.81-3.8-8.28-3.8c-3.41,0-6.17,1.27-8.28,3.8c-2.11,2.53-3.16,5.75-3.16,9.64c0,4,1.05,7.27,3.16,9.8
		c2.11,2.53,4.87,3.8,8.28,3.8c3.41,0,6.16-1.27,8.24-3.8C290.5,72.79,291.54,69.52,291.54,65.52z"/>
	<path class="st1" d="M315.62,84.8h-8V28.08h8V84.8z"/>
	<path class="st1" d="M334.74,62.56V84.8h-7.52V46.32h7.36v5.52c2.56-4.43,6.51-6.64,11.84-6.64c4.43,0,7.83,1.41,10.2,4.24
		c2.37,2.83,3.56,6.48,3.56,10.96v24.4h-7.52V61.68c0-6.45-2.99-9.68-8.96-9.68c-2.83,0-5.03,1-6.6,3S334.74,59.52,334.74,62.56z"/>
	<path class="st1" d="M380.26,34.16v12.16h8.32v6.8h-8.32v20c0,1.81,0.41,3.15,1.24,4c0.83,0.85,2.2,1.28,4.12,1.28
		c1.12,0,2.11-0.11,2.96-0.32v6.4c-1.28,0.48-2.99,0.72-5.12,0.72c-3.31,0-5.92-0.96-7.84-2.88c-1.92-1.92-2.88-4.61-2.88-8.08
		V53.12h-7.36v-6.8h2.08c1.97,0,3.45-0.55,4.44-1.64c0.99-1.09,1.48-2.52,1.48-4.28v-6.24H380.26z"/>
	<path class="st1" d="M421.94,80.16c-1.01,1.92-2.56,3.37-4.64,4.36S412.98,86,410.58,86c-4.37,0-7.87-1.45-10.48-4.36
		c-2.61-2.91-3.92-6.6-3.92-11.08V46.32h7.52v23.12c0,2.88,0.71,5.25,2.12,7.12c1.41,1.87,3.61,2.8,6.6,2.8
		c2.99,0,5.25-0.89,6.8-2.68c1.55-1.79,2.32-4.17,2.32-7.16v-23.2h7.52v31.36c0,2.51,0.13,4.88,0.4,7.12h-7.2
		C422.05,83.63,421.94,82.08,421.94,80.16z"/>
	<path class="st1" d="M439.74,35.56c-1.04-1.04-1.56-2.31-1.56-3.8c0-1.49,0.52-2.77,1.56-3.84c1.04-1.07,2.31-1.6,3.8-1.6
		c1.49,0,2.77,0.52,3.84,1.56c1.07,1.04,1.6,2.33,1.6,3.88c0,1.49-0.53,2.76-1.6,3.8c-1.07,1.04-2.35,1.56-3.84,1.56
		C442.05,37.12,440.78,36.6,439.74,35.56z M447.3,84.8h-7.44V46.32h7.44V84.8z"/>
	<path class="st1" d="M468.18,34.16v12.16h8.32v6.8h-8.32v20c0,1.81,0.41,3.15,1.24,4c0.83,0.85,2.2,1.28,4.12,1.28
		c1.12,0,2.11-0.11,2.96-0.32v6.4c-1.28,0.48-2.99,0.72-5.12,0.72c-3.31,0-5.92-0.96-7.84-2.88c-1.92-1.92-2.88-4.61-2.88-8.08
		V53.12h-7.36v-6.8h2.08c1.97,0,3.45-0.55,4.44-1.64c0.99-1.09,1.48-2.52,1.48-4.28v-6.24H468.18z"/>
	<path class="st1" d="M484.38,35.56c-1.04-1.04-1.56-2.31-1.56-3.8c0-1.49,0.52-2.77,1.56-3.84c1.04-1.07,2.31-1.6,3.8-1.6
		c1.49,0,2.77,0.52,3.84,1.56c1.07,1.04,1.6,2.33,1.6,3.88c0,1.49-0.53,2.76-1.6,3.8c-1.07,1.04-2.35,1.56-3.84,1.56
		C486.68,37.12,485.42,36.6,484.38,35.56z M491.94,84.8h-7.44V46.32h7.44V84.8z"/>
	<path class="st1" d="M505.1,50.92c3.71-3.87,8.41-5.8,14.12-5.8c5.71,0,10.41,1.93,14.12,5.8c3.71,3.87,5.56,8.73,5.56,14.6
		c0,5.92-1.84,10.81-5.52,14.68c-3.68,3.87-8.4,5.8-14.16,5.8s-10.48-1.93-14.16-5.8c-3.68-3.87-5.52-8.76-5.52-14.68
		C499.54,59.65,501.39,54.79,505.1,50.92z M510.7,75.64c2.32,2.43,5.16,3.64,8.52,3.64s6.2-1.21,8.52-3.64
		c2.32-2.43,3.48-5.8,3.48-10.12c0-4.27-1.16-7.61-3.48-10.04c-2.32-2.43-5.16-3.64-8.52-3.64s-6.2,1.21-8.52,3.64
		c-2.32,2.43-3.48,5.77-3.48,10.04C507.22,69.84,508.38,73.21,510.7,75.64z"/>
	<path class="st1" d="M554.02,62.56V84.8h-7.52V46.32h7.36v5.52c2.56-4.43,6.51-6.64,11.84-6.64c4.43,0,7.83,1.41,10.2,4.24
		c2.37,2.83,3.56,6.48,3.56,10.96v24.4h-7.52V61.68c0-6.45-2.99-9.68-8.96-9.68c-2.83,0-5.03,1-6.6,3
		C554.8,57,554.02,59.52,554.02,62.56z"/>
	<path class="st1" d="M585.86,74.8l6.8-2.4c0.27,2.08,1.17,3.8,2.72,5.16c1.55,1.36,3.63,2.04,6.24,2.04c2.03,0,3.63-0.49,4.8-1.48
		c1.17-0.99,1.76-2.2,1.76-3.64c0-2.56-1.65-4.21-4.96-4.96l-6.56-1.44c-2.99-0.64-5.33-1.92-7.04-3.84
		c-1.71-1.92-2.56-4.24-2.56-6.96c0-3.31,1.35-6.16,4.04-8.56c2.69-2.4,5.91-3.6,9.64-3.6c2.45,0,4.64,0.36,6.56,1.08
		c1.92,0.72,3.41,1.67,4.48,2.84c1.07,1.17,1.87,2.27,2.4,3.28c0.53,1.01,0.93,2.05,1.2,3.12l-6.64,2.48
		c-0.11-0.64-0.29-1.27-0.56-1.88c-0.27-0.61-0.68-1.29-1.24-2.04c-0.56-0.75-1.37-1.35-2.44-1.8c-1.07-0.45-2.32-0.68-3.76-0.68
		c-1.87,0-3.4,0.51-4.6,1.52c-1.2,1.01-1.8,2.21-1.8,3.6c0,2.45,1.47,4,4.4,4.64l6.24,1.36c3.41,0.75,6.04,2.12,7.88,4.12
		s2.76,4.44,2.76,7.32c0,3.04-1.24,5.79-3.72,8.24c-2.48,2.45-5.93,3.68-10.36,3.68c-4.75,0-8.45-1.19-11.12-3.56
		C587.75,80.07,586.23,77.52,585.86,74.8z"/>
</g>
<g>
	<g>
		<path class="st2" d="M55.45,5.68c-2.38-1.43-6.27-1.43-8.64,0L10.45,27.49c-2.38,1.43-4.32,4.86-4.32,7.63v43.92
			c0,2.77,1.94,6.21,4.32,7.63l36.36,21.81c2.38,1.43,6.27,1.43,8.64,0l36.35-21.8c2.38-1.43,4.32-4.86,4.32-7.63V35.12
			c0-2.77-1.94-6.21-4.32-7.63L55.45,5.68z"/>
	</g>
	<g>
		<g>
			<defs>
				<polygon id="SVGID_1_" points="50.95,57.37 50.95,111.37 95.95,84.37 95.95,30.37 				"/>
			</defs>
			<clipPath id="SVGID_2_">
				<use xlink:href="#SVGID_1_"  style="overflow:visible;"/>
			</clipPath>
			<g class="st3">
				<path d="M55.56,5.66c-2.38-1.43-6.27-1.43-8.64,0L10.56,27.48c-2.38,1.43-4.32,4.86-4.32,7.63v43.92c0,2.77,1.94,6.21,4.32,7.63
					l36.36,21.81c2.38,1.43,6.27,1.43,8.64,0l36.36-21.81c2.38-1.43,4.32-4.86,4.32-7.63V35.11c0-2.77-1.94-6.21-4.32-7.63
					L55.56,5.66z"/>
			</g>
		</g>
	</g>
	<circle class="st4" cx="23.2" cy="40.82" r="4.35"/>
	<circle class="st4" cx="53.82" cy="21.57" r="4.35"/>
	<circle class="st4" cx="82.69" cy="38.63" r="4.35"/>
	<circle class="st4" cx="83.04" cy="61.3" r="4.35"/>
	<circle class="st4" cx="51.55" cy="79.72" r="4.35"/>
	<line class="st5" x1="34.9" y1="8.26" x2="97.27" y2="48.2"/>
	<line class="st5" x1="67.84" y1="12.46" x2="3.37" y2="54.51"/>
	<line class="st5" x1="10.38" y1="22.62" x2="68.89" y2="102.86"/>
	<line class="st5" x1="20.89" y1="98.2" x2="103.63" y2="50.3"/>
	<line class="st5" x1="83.04" y1="9.04" x2="83.04" y2="94.19"/>
	<line class="st5" x1="4.07" y1="33.84" x2="96.57" y2="64.67"/>
	<line class="st5" x1="1.45" y1="41.89" x2="97.97" y2="38.04"/>
</g>
</svg>
