<?xml version="1.0" encoding="utf-8"?>
<!-- Generator: Adobe Illustrator 24.0.1, SVG Export Plug-In . SVG Version: 6.00 Build 0)  -->
<svg version="1.1" id="Layer_1" xmlns="http://www.w3.org/2000/svg" xmlns:xlink="http://www.w3.org/1999/xlink" x="0px" y="0px"
	 viewBox="0 0 625 113" style="enable-background:new 0 0 625 113;" xml:space="preserve">
<style type="text/css">
	.st0{fill:#262626;}
	.st1{fill:#3BBCA6;}
	.st2{opacity:0.3;clip-path:url(#SVGID_2_);}
	.st3{fill:#FFFFFF;}
	.st4{fill:#FFFFFF;stroke:#FFFFFF;stroke-width:1.5;stroke-miterlimit:10;}
</style>
<g>
	<path class="st0" d="M114.6,84.8v-1.56c2.31,0,3.9-0.64,4.78-1.91c0.88-1.27,1.32-3.48,1.32-6.64V41.11c0-3.22-0.44-5.45-1.32-6.71
		c-0.88-1.26-2.48-1.88-4.78-1.88v-1.56h24.9c9.2,0,16.56,2.62,22.08,7.85s8.28,11.89,8.28,19.97c0,7.92-2.61,14.24-7.84,18.96
		s-12.5,7.07-21.83,7.07H114.6z M138.06,33.03h-10.24v39.75c0,3.83,0.46,6.44,1.38,7.85s2.75,2.11,5.51,2.11h5.55
		c6.61,0,11.81-2.13,15.61-6.4c3.79-4.27,5.69-10.09,5.69-17.46c0-7.83-2.07-14.1-6.22-18.8C151.19,35.37,145.43,33.03,138.06,33.03
		z"/>
	<path class="st0" d="M209.43,76.26v2.43c-2.02,2.57-4.08,4.41-6.17,5.51s-4.61,1.65-7.55,1.65c-5.2,0-9.49-1.63-12.87-4.89
		c-3.38-3.26-5.07-7.4-5.07-12.42c0-5.05,1.61-9.3,4.84-12.76c3.23-3.46,7.18-5.19,11.86-5.19c3.86,0,7.22,1.3,10.1,3.9
		c2.88,2.6,4.31,5.71,4.31,9.32v0.69h-24.46v0.46c0,3.67,0.56,6.86,1.68,9.57c1.12,2.71,2.75,4.83,4.89,6.36
		c2.14,1.53,4.38,2.29,6.7,2.29c2.17,0,4.03-0.45,5.58-1.35C204.8,80.94,206.86,79.08,209.43,76.26z M184.41,62.91h18.13v-0.64
		c0-2.97-0.85-5.32-2.55-7.07s-3.82-2.62-6.36-2.62c-2.69,0-4.86,0.92-6.49,2.75C185.51,57.17,184.6,59.69,184.41,62.91z"/>
	<path class="st0" d="M247.57,76.26v2.43c-2.02,2.57-4.08,4.41-6.17,5.51s-4.61,1.65-7.55,1.65c-5.2,0-9.49-1.63-12.87-4.89
		c-3.38-3.26-5.07-7.4-5.07-12.42c0-5.05,1.61-9.3,4.84-12.76c3.23-3.46,7.18-5.19,11.87-5.19c3.86,0,7.22,1.3,10.1,3.9
		c2.88,2.6,4.31,5.71,4.31,9.32v0.69h-24.46v0.46c0,3.67,0.56,6.86,1.67,9.57s2.75,4.83,4.89,6.36c2.14,1.53,4.38,2.29,6.7,2.29
		c2.17,0,4.03-0.45,5.58-1.35C242.94,80.94,245,79.08,247.57,76.26z M222.55,62.91h18.13v-0.64c0-2.97-0.85-5.32-2.55-7.07
		c-1.7-1.74-3.82-2.62-6.36-2.62c-2.69,0-4.86,0.92-6.49,2.75C223.65,57.17,222.74,59.69,222.55,62.91z"/>
	<path class="st0" d="M263.73,50.6v5.6c2.12-2.05,4.04-3.5,5.77-4.34c1.73-0.84,3.67-1.26,5.82-1.26c4.32,0,7.91,1.65,10.76,4.93
		c2.85,3.29,4.28,7.43,4.28,12.42c0,5.14-1.57,9.41-4.71,12.81c-3.14,3.4-7.09,5.09-11.84,5.09c-3.28,0-6.64-1.32-10.07-3.95v21.89
		c0,2.26,0.39,3.76,1.17,4.47c0.78,0.72,2.24,1.08,4.38,1.08v1.56h-17.81v-1.56c2.29,0,3.84-0.32,4.64-0.96
		c0.79-0.64,1.19-1.87,1.19-3.67V58.37c0-2.24-0.34-3.66-1.01-4.27c-0.67-0.61-2.28-0.92-4.82-0.92v-1.56l10.65-1.01H263.73z
		 M263.73,58.68v20.84c2.61,2.75,5.67,4.13,9.2,4.13c2.97,0,5.47-1.39,7.48-4.18c2.01-2.78,3.01-6.24,3.01-10.37
		c0-4.47-1-8.15-3.01-11.06c-2.01-2.91-4.56-4.36-7.66-4.36C269.61,53.68,266.61,55.35,263.73,58.68z"/>
	<path class="st0" d="M315.59,30.96v1.56c-2.29,0-3.89,0.63-4.77,1.88c-0.89,1.26-1.33,3.49-1.33,6.71v33.58
		c0,3.22,0.44,5.44,1.33,6.68c0.89,1.24,2.48,1.86,4.77,1.86v1.56h-19.37v-1.56c2.36,0,3.96-0.61,4.82-1.84
		c0.86-1.22,1.29-3.46,1.29-6.71V41.11c0-3.31-0.42-5.57-1.26-6.78c-0.84-1.21-2.46-1.81-4.84-1.81v-1.56H315.59z"/>
	<path class="st0" d="M331.01,50.6v6.66c3.89-4.44,7.89-6.66,12.03-6.66c3.21,0,5.89,1.1,8.03,3.29c2.14,2.19,3.21,5.08,3.21,8.66
		v15.03c0,2.3,0.38,3.82,1.15,4.55c0.76,0.74,2.26,1.1,4.5,1.1v1.56h-17.76v-1.56c2.2,0,3.71-0.28,4.52-0.85
		c0.81-0.57,1.22-1.66,1.22-3.29V61.68c0-2.33-0.7-4.18-2.09-5.56c-1.39-1.38-3.17-2.07-5.35-2.07c-3.12,0-6.27,2.17-9.46,6.52
		v16.28c0,2.76,0.36,4.51,1.07,5.27c0.71,0.75,2.21,1.13,4.48,1.13v1.56h-17.53v-1.56c2.54,0,4.1-0.41,4.68-1.22
		c0.58-0.81,0.87-2.54,0.87-5.18V58.06c0-2-0.35-3.31-1.06-3.94c-0.7-0.63-2.2-0.94-4.5-0.94v-1.56l10.37-1.01H331.01z"/>
	<path class="st0" d="M373.74,40.23h1.61v11.2h11.57v2.43h-11.57V75.3c0,2.23,0.52,3.96,1.56,5.16c1.04,1.21,2.52,1.81,4.45,1.81
		c2.26,0,4.33-1.07,6.2-3.21l1.06,1.24c-2.91,3.7-6.26,5.55-10.05,5.55c-2.85,0-5.16-0.9-6.93-2.71c-1.78-1.81-2.66-4.13-2.66-6.98
		V53.86h-6.29v-1.61C367.27,49.96,370.96,45.95,373.74,40.23z"/>
	<path class="st0" d="M423.22,50.6h1.56v27.95c0,1.84,0.39,3.08,1.17,3.72c0.78,0.64,2.3,0.97,4.57,0.97v1.56l-12.12,0.64v-6.1
		h-0.18c-3.34,4.34-7.22,6.52-11.66,6.52c-3.18,0-5.79-1.06-7.83-3.19c-2.04-2.13-3.05-4.8-3.05-8.02V57.59
		c0-1.72-0.43-2.88-1.29-3.49c-0.86-0.61-2.4-0.92-4.64-0.92v-1.56l10.69-1.01h1.61v23.78c0,2.33,0.68,4.16,2.04,5.51
		s3.19,2.02,5.49,2.02c3.18,0,6.12-1.82,8.81-5.46V58.46c0-2.3-0.35-3.74-1.06-4.32c-0.7-0.58-2.51-0.9-5.42-0.97v-1.56L423.22,50.6
		z"/>
	<path class="st0" d="M444.06,50.6h1.61v28.04c0,1.84,0.4,3.06,1.19,3.68c0.79,0.61,2.25,0.92,4.36,0.92v1.56H433v-1.56
		c2.66,0,4.38-0.3,5.14-0.9c0.76-0.6,1.15-1.83,1.15-3.71V58.15c0-2.03-0.35-3.36-1.06-4.01c-0.7-0.64-2.45-0.97-5.23-0.97v-1.56
		L444.06,50.6z M442.59,33.39c1.13,0,2.09,0.39,2.87,1.17c0.78,0.78,1.17,1.74,1.17,2.87c0,1.13-0.4,2.1-1.19,2.91
		c-0.8,0.81-1.74,1.22-2.85,1.22c-1.13,0-2.11-0.41-2.94-1.22c-0.83-0.81-1.24-1.78-1.24-2.91c0-1.13,0.41-2.09,1.22-2.87
		S441.43,33.39,442.59,33.39z"/>
	<path class="st0" d="M465.77,40.23h1.61v11.2h11.57v2.43h-11.57V75.3c0,2.23,0.52,3.96,1.56,5.16c1.04,1.21,2.52,1.81,4.45,1.81
		c2.26,0,4.33-1.07,6.2-3.21l1.06,1.24c-2.91,3.7-6.26,5.55-10.05,5.55c-2.85,0-5.16-0.9-6.93-2.71c-1.78-1.81-2.66-4.13-2.66-6.98
		V53.86h-6.29v-1.61C459.3,49.96,462.99,45.95,465.77,40.23z"/>
	<path class="st0" d="M493.03,50.6h1.61v28.04c0,1.84,0.4,3.06,1.19,3.68c0.79,0.61,2.25,0.92,4.36,0.92v1.56h-18.22v-1.56
		c2.66,0,4.38-0.3,5.14-0.9c0.76-0.6,1.15-1.83,1.15-3.71V58.15c0-2.03-0.35-3.36-1.06-4.01c-0.7-0.64-2.45-0.97-5.23-0.97v-1.56
		L493.03,50.6z M491.57,33.39c1.13,0,2.09,0.39,2.87,1.17c0.78,0.78,1.17,1.74,1.17,2.87c0,1.13-0.4,2.1-1.19,2.91
		c-0.8,0.81-1.74,1.22-2.85,1.22c-1.13,0-2.11-0.41-2.94-1.22c-0.83-0.81-1.24-1.78-1.24-2.91c0-1.13,0.41-2.09,1.22-2.87
		S490.4,33.39,491.57,33.39z"/>
	<path class="st0" d="M541.92,68.28c0,5.02-1.74,9.2-5.21,12.55c-3.47,3.35-7.81,5.03-13.01,5.03c-5.2,0-9.54-1.68-13.01-5.03
		s-5.21-7.53-5.21-12.55c0-5.08,1.73-9.29,5.19-12.65c3.46-3.35,7.8-5.03,13.04-5.03s9.58,1.68,13.04,5.03
		C540.19,58.98,541.92,63.2,541.92,68.28z M534.99,68.3c0-4.75-1.01-8.58-3.03-11.49c-2.02-2.91-4.77-4.37-8.26-4.37
		s-6.24,1.42-8.26,4.27c-2.02,2.85-3.03,6.71-3.03,11.58c0,4.78,1,8.6,3.01,11.45c2,2.85,4.76,4.27,8.28,4.27
		c3.52,0,6.28-1.44,8.28-4.32C533.98,76.82,534.99,73.02,534.99,68.3z"/>
	<path class="st0" d="M558.12,50.6v6.66c3.89-4.44,7.89-6.66,12.03-6.66c3.21,0,5.89,1.1,8.03,3.29c2.14,2.19,3.21,5.08,3.21,8.66
		v15.03c0,2.3,0.38,3.82,1.15,4.55c0.76,0.74,2.26,1.1,4.5,1.1v1.56h-17.76v-1.56c2.2,0,3.71-0.28,4.52-0.85
		c0.81-0.57,1.22-1.66,1.22-3.29V61.68c0-2.33-0.7-4.18-2.09-5.56c-1.39-1.38-3.17-2.07-5.35-2.07c-3.12,0-6.27,2.17-9.46,6.52
		v16.28c0,2.76,0.36,4.51,1.07,5.27c0.71,0.75,2.21,1.13,4.48,1.13v1.56h-17.53v-1.56c2.54,0,4.1-0.41,4.68-1.22
		c0.58-0.81,0.87-2.54,0.87-5.18V58.06c0-2-0.35-3.31-1.06-3.94c-0.7-0.63-2.2-0.94-4.5-0.94v-1.56l10.37-1.01H558.12z"/>
	<path class="st0" d="M612.92,50.6v10.24h-1.88c-0.31-2.57-1.22-4.61-2.75-6.13c-1.53-1.51-3.38-2.27-5.55-2.27
		c-1.65,0-2.98,0.41-3.99,1.24s-1.51,1.93-1.51,3.3c0,1.35,0.47,2.53,1.4,3.56c0.93,1.03,2.96,2.26,6.08,3.7
		c4.04,1.84,6.71,3.6,8.01,5.28c1.3,1.68,1.95,3.7,1.95,6.06c0,2.78-1.04,5.19-3.12,7.23c-2.08,2.04-4.54,3.05-7.39,3.05
		c-1.47,0-3.41-0.54-5.83-1.61c-1.32-0.58-2.19-0.87-2.62-0.87c-0.58,0-1.07,0.21-1.47,0.64c-0.4,0.43-0.63,0.96-0.69,1.61h-1.61
		V74.29h1.61c0.58,2.98,1.87,5.35,3.86,7.1c1.99,1.75,4.27,2.63,6.84,2.63c1.65,0,3.04-0.55,4.15-1.65c1.12-1.1,1.67-2.47,1.67-4.09
		c0-1.56-0.51-2.92-1.54-4.07c-1.03-1.15-3.26-2.48-6.68-3.98c-3.85-1.69-6.39-3.27-7.61-4.74c-1.22-1.47-1.83-3.25-1.83-5.33
		c0-2.6,1-4.85,3.01-6.73s4.38-2.82,7.14-2.82c1.29,0,2.68,0.31,4.18,0.92c1.07,0.43,1.94,0.64,2.62,0.64
		c0.89,0,1.54-0.52,1.97-1.56H612.92z"/>
</g>
<g>
	<g>
		<path class="st1" d="M55.45,5.68c-2.38-1.43-6.27-1.43-8.64,0L10.45,27.49c-2.38,1.43-4.32,4.86-4.32,7.63v43.92
			c0,2.77,1.94,6.21,4.32,7.63l36.36,21.81c2.38,1.43,6.27,1.43,8.64,0L91.8,86.68c2.38-1.43,4.32-4.86,4.32-7.63V35.12
			c0-2.77-1.94-6.21-4.32-7.63L55.45,5.68z"/>
	</g>
	<g>
		<defs>
			<polygon id="SVGID_1_" points="50.95,57.37 50.95,111.37 95.95,84.37 95.95,30.37 			"/>
		</defs>
		<clipPath id="SVGID_2_">
			<use xlink:href="#SVGID_1_"  style="overflow:visible;"/>
		</clipPath>
		<g class="st2">
			<path d="M55.56,5.66c-2.38-1.43-6.27-1.43-8.64,0L10.56,27.48c-2.38,1.43-4.32,4.86-4.32,7.63v43.92c0,2.77,1.94,6.21,4.32,7.63
				l36.36,21.81c2.38,1.43,6.27,1.43,8.64,0l36.36-21.81c2.38-1.43,4.32-4.86,4.32-7.63V35.11c0-2.77-1.94-6.21-4.32-7.63
				L55.56,5.66z"/>
		</g>
	</g>
	<circle class="st3" cx="23.2" cy="40.82" r="4.35"/>
	<circle class="st3" cx="53.82" cy="21.57" r="4.35"/>
	<circle class="st3" cx="82.69" cy="38.63" r="4.35"/>
	<circle class="st3" cx="83.04" cy="61.3" r="4.35"/>
	<circle class="st3" cx="51.55" cy="79.72" r="4.35"/>
	<line class="st4" x1="34.9" y1="8.26" x2="97.27" y2="48.2"/>
	<line class="st4" x1="67.84" y1="12.46" x2="3.37" y2="54.51"/>
	<line class="st4" x1="10.38" y1="22.62" x2="68.89" y2="102.86"/>
	<line class="st4" x1="20.89" y1="98.2" x2="103.63" y2="50.3"/>
	<line class="st4" x1="83.04" y1="9.04" x2="83.04" y2="94.19"/>
	<line class="st4" x1="4.07" y1="33.84" x2="96.57" y2="64.67"/>
	<line class="st4" x1="1.45" y1="41.89" x2="97.97" y2="38.04"/>
</g>
</svg>
