<?xml version="1.0" encoding="utf-8"?>
<!-- Generator: Adobe Illustrator 24.0.1, SVG Export Plug-In . SVG Version: 6.00 Build 0)  -->
<svg version="1.1" id="Layer_1" xmlns="http://www.w3.org/2000/svg" xmlns:xlink="http://www.w3.org/1999/xlink" x="0px" y="0px"
	 viewBox="0 0 625 113" style="enable-background:new 0 0 625 113;" xml:space="preserve">
<style type="text/css">
	.st0{fill:#262626;}
	.st1{fill:#3BBCA6;}
	.st2{opacity:0.3;clip-path:url(#SVGID_2_);}
	.st3{fill:#FFFFFF;}
	.st4{fill:#FFFFFF;stroke:#FFFFFF;stroke-width:1.5;stroke-miterlimit:10;}
</style>
<g>
	<path class="st0" d="M146.74,84.8h-29.28v-2.48h1.92c6.16,0,6.32-0.88,6.32-3.76V36.4c0-2.88-0.16-3.76-6.32-3.76h-1.92v-2.48
		h29.28c13.68,0,24.48,12.56,24.48,27.76C171.23,72.96,160.19,84.8,146.74,84.8z M159.06,40.08c-4.08-5.68-9.6-7.44-14.56-7.44h-8
		c-3.76,0-3.92,0.56-3.92,3.2v43.28c0,2.64,0.16,3.2,3.92,3.2h8.08c8.08,0,12.64-4.64,14.24-6.8c2.88-3.92,4.4-8.72,4.4-17.6
		C163.23,51.68,162.51,44.8,159.06,40.08z"/>
	<path class="st0" d="M194.82,85.68c-9.2,0-17.6-7.76-17.6-18.48c0-10,7.36-18.24,16.64-18.24c10,0,14.32,7.76,14.32,15.68
		c0,1.68-0.24,1.68-2,1.68h-22.32c0,2.88,0,8.16,2.4,12c1.84,2.96,5.04,5.36,9.04,5.36c0.8,0,8,0,10.8-8.24
		c0.16-0.64,0.32-1.12,1.04-1.12c0.4,0,1.04,0.16,1.04,0.96C208.18,76.8,204.58,85.68,194.82,85.68z M193.86,50.72
		c-2.72,0-9.44,2-9.92,13.92h18.96C202.9,61.52,202.1,50.72,193.86,50.72z"/>
	<path class="st0" d="M229.54,85.68c-9.2,0-17.6-7.76-17.6-18.48c0-10,7.36-18.24,16.64-18.24c10,0,14.32,7.76,14.32,15.68
		c0,1.68-0.24,1.68-2,1.68h-22.32c0,2.88,0,8.16,2.4,12c1.84,2.96,5.04,5.36,9.04,5.36c0.8,0,8,0,10.8-8.24
		c0.16-0.64,0.32-1.12,1.04-1.12c0.4,0,1.04,0.16,1.04,0.96C242.9,76.8,239.3,85.68,229.54,85.68z M228.58,50.72
		c-2.72,0-9.44,2-9.92,13.92h18.96C237.62,61.52,236.82,50.72,228.58,50.72z"/>
	<path class="st0" d="M268.26,85.68c-6.08,0-9.44-4.32-9.84-5.6v0.72v13.44c0,3.6,0.88,3.6,6.24,3.6v2.48l-9.04-0.24l-8.96,0.24
		v-2.48c5.36,0,6.24,0,6.24-3.6V56.8c0-3.52-0.56-4-6.24-4v-2.48l11.52-0.88v5.28c1.6-1.76,4.96-5.28,11.2-5.28
		c8.96,0,16.72,7.92,16.72,18.08C286.1,77.84,277.78,85.68,268.26,85.68z M268.74,51.44c-4.08,0-8,2.32-10.32,6.4v17.84
		c0,1.6,0,1.68,1.12,3.36c2.16,3.28,5.2,4.88,8.4,4.88c5.92,0,11.52-6.72,11.52-16.4C279.46,58.48,274.58,51.44,268.74,51.44z"/>
	<path class="st0" d="M306.05,84.56c-3.04,0-9.36,0-12.16,0.24v-2.48h2.08c6.32,0,6.56-0.88,6.56-3.76V36.4
		c0-2.88-0.24-3.76-6.56-3.76h-2.08v-2.48c2.8,0.24,9.12,0.24,12.24,0.24c3.04,0,9.36,0,12.16-0.24v2.48h-2.08
		c-6.32,0-6.56,0.88-6.56,3.76v42.16c0,2.88,0.24,3.76,6.56,3.76h2.08v2.48C315.5,84.56,309.17,84.56,306.05,84.56z"/>
	<path class="st0" d="M353.57,84.56l-9.04,0.24v-2.48c5.36,0,6.24,0,6.24-3.6V60.08c0-4.56-0.88-8.88-5.92-8.88
		c-5.12,0-10.8,4.48-10.8,12.8v14.72c0,3.6,0.88,3.6,6.24,3.6v2.48l-8.96-0.24l-9.04,0.24v-2.48c5.36,0,6.24,0,6.24-3.6V57.28
		c0-3.92-0.64-4.48-6.24-4.48v-2.48l11.28-0.88v8.4c2.24-4.96,6-8.4,11.84-8.4c4.64,0,7.28,1.6,8.4,2.96
		c2.48,2.88,2.48,5.36,2.48,12.24v15.28c0.08,2.4,2.08,2.4,6.24,2.4v2.48L353.57,84.56z"/>
	<path class="st0" d="M379.81,85.68c-2.88,0-10.32-0.96-10.32-10.8V52.8h-6.8v-1.76c7.84-0.32,10.24-8.88,10.32-15.44h2v14.72h11.44
		v2.48h-11.44v22.24c0,1.36,0,8.64,5.36,8.64c2.96,0,5.36-3.04,5.36-8.96v-4.4h2v4.56C387.73,80,385.49,85.68,379.81,85.68z"/>
	<path class="st0" d="M422.77,85.68v-7.2c-2.32,4.96-5.84,7.2-10.32,7.2c-12.16,0-12.16-7.28-12.16-13.52v-12
		c0-7.12,0-7.36-6.24-7.36v-2.48l11.76-0.88V76c0,4.16,0.32,7.92,7.04,7.92c5.84,0,9.68-5.44,9.68-12.4V57.28
		c0-3.92-0.64-4.48-6.24-4.48v-2.48l11.76-0.88v28.4c0,3.92,0.64,4.48,6.24,4.48v2.48L422.77,85.68z"/>
	<path class="st0" d="M446.61,84.56l-8.8,0.24v-2.48c5.36,0,6.24,0,6.24-3.6V57.2c0-3.92-0.72-4.4-5.92-4.4v-2.48l11.2-0.88V78.8
		c0,3.12,0.32,3.52,5.6,3.52v2.48C452.21,84.72,449.41,84.56,446.61,84.56z M446.21,40.72c-2.4,0-4.24-2.08-4.24-4.24
		c0-2,1.6-4.24,4.32-4.24c2.4,0,4.24,2.08,4.24,4.24C450.53,38.48,448.93,40.72,446.21,40.72z"/>
	<path class="st0" d="M475.25,85.68c-2.88,0-10.32-0.96-10.32-10.8V52.8h-6.8v-1.76c7.84-0.32,10.24-8.88,10.32-15.44h2v14.72h11.44
		v2.48h-11.44v22.24c0,1.36,0,8.64,5.36,8.64c2.96,0,5.36-3.04,5.36-8.96v-4.4h2v4.56C483.17,80,480.93,85.68,475.25,85.68z"/>
	<path class="st0" d="M498.37,84.56l-8.8,0.24v-2.48c5.36,0,6.24,0,6.24-3.6V57.2c0-3.92-0.72-4.4-5.92-4.4v-2.48l11.2-0.88V78.8
		c0,3.12,0.32,3.52,5.6,3.52v2.48C503.97,84.72,501.17,84.56,498.37,84.56z M497.97,40.72c-2.4,0-4.24-2.08-4.24-4.24
		c0-2,1.6-4.24,4.32-4.24c2.4,0,4.24,2.08,4.24,4.24C502.29,38.48,500.69,40.72,497.97,40.72z"/>
	<path class="st0" d="M528.29,85.68c-9.36,0-17.68-7.68-17.68-18c0-10,7.76-18.72,17.76-18.72c9.68,0,17.68,8.48,17.68,18.72
		C546.05,77.84,537.97,85.68,528.29,85.68z M537.33,55.92c-2.08-3.44-5.52-5.2-9.04-5.2c-3.2,0-6.96,1.68-9.12,5.36
		c-1.92,3.52-1.92,7.84-1.92,10.96c0,2.88,0,7.76,2,11.28c2.16,3.68,5.68,5.36,9.12,5.36c4,0,7.52-2.32,9.28-5.92
		c1.76-3.52,1.76-7.84,1.76-10.72C539.41,64,539.41,59.36,537.33,55.92z"/>
	<path class="st0" d="M581.41,84.56l-9.04,0.24v-2.48c5.36,0,6.24,0,6.24-3.6V60.08c0-4.56-0.88-8.88-5.92-8.88
		c-5.12,0-10.8,4.48-10.8,12.8v14.72c0,3.6,0.88,3.6,6.24,3.6v2.48l-8.96-0.24l-9.04,0.24v-2.48c5.36,0,6.24,0,6.24-3.6V57.28
		c0-3.92-0.64-4.48-6.24-4.48v-2.48l11.28-0.88v8.4c2.24-4.96,6-8.4,11.84-8.4c4.64,0,7.28,1.6,8.4,2.96
		c2.48,2.88,2.48,5.36,2.48,12.24v15.28c0.08,2.4,2.08,2.4,6.24,2.4v2.48L581.41,84.56z"/>
	<path class="st0" d="M607.17,85.68c-1.68,0-5.28-0.08-8.8-3.44c-1.44,1.52-1.44,1.68-1.6,1.84c-1.52,1.52-1.6,1.6-2,1.6
		c-0.88,0-0.88-0.56-0.88-1.92V73.2c0-1.44,0-2,1.04-2c0.8,0,0.88,0.32,1.12,1.36c1.52,6.8,4.4,11.36,11.12,11.36
		c6.24,0,9.04-3.2,9.04-7.28c0-5.76-6.56-7.04-8.32-7.36c-5.76-1.12-8-1.6-10.56-3.68c-2.16-1.76-3.44-4-3.44-6.8
		c0-4.48,3.04-9.84,12.8-9.84c1.2,0,4.48,0,7.52,2.24c0.32-0.24,1.12-0.96,1.36-1.28c1.04-0.96,1.2-0.96,1.6-0.96
		c0.88,0,0.88,0.56,0.88,1.92v8.08c0,1.52,0,1.92-1.04,1.92c0,0-0.88,0-0.96-0.72c-0.16-2.48-0.56-9.68-9.36-9.68
		c-6.88,0-8.96,3.28-8.96,6.08c0,4.64,5.36,5.68,9.84,6.56c3.36,0.64,6.48,1.28,9.12,3.84c0.96,0.96,3.36,3.36,3.36,7.6
		C620.05,80.32,616.37,85.68,607.17,85.68z"/>
</g>
<g>
	<g>
		<path class="st1" d="M55.45,5.68c-2.38-1.43-6.27-1.43-8.64,0L10.45,27.49c-2.38,1.43-4.32,4.86-4.32,7.63v43.92
			c0,2.77,1.94,6.21,4.32,7.63l36.36,21.81c2.38,1.43,6.27,1.43,8.64,0L91.8,86.68c2.38-1.43,4.32-4.86,4.32-7.63V35.12
			c0-2.77-1.94-6.21-4.32-7.63L55.45,5.68z"/>
	</g>
	<g>
		<defs>
			<polygon id="SVGID_1_" points="50.95,57.37 50.95,111.37 95.95,84.37 95.95,30.37 			"/>
		</defs>
		<clipPath id="SVGID_2_">
			<use xlink:href="#SVGID_1_"  style="overflow:visible;"/>
		</clipPath>
		<g class="st2">
			<path d="M55.56,5.66c-2.38-1.43-6.27-1.43-8.64,0L10.56,27.48c-2.38,1.43-4.32,4.86-4.32,7.63v43.92c0,2.77,1.94,6.21,4.32,7.63
				l36.36,21.81c2.38,1.43,6.27,1.43,8.64,0l36.36-21.81c2.38-1.43,4.32-4.86,4.32-7.63V35.11c0-2.77-1.94-6.21-4.32-7.63
				L55.56,5.66z"/>
		</g>
	</g>
	<circle class="st3" cx="23.2" cy="40.82" r="4.35"/>
	<circle class="st3" cx="53.82" cy="21.57" r="4.35"/>
	<circle class="st3" cx="82.69" cy="38.63" r="4.35"/>
	<circle class="st3" cx="83.04" cy="61.3" r="4.35"/>
	<circle class="st3" cx="51.55" cy="79.72" r="4.35"/>
	<line class="st4" x1="34.9" y1="8.26" x2="97.27" y2="48.2"/>
	<line class="st4" x1="67.84" y1="12.46" x2="3.37" y2="54.51"/>
	<line class="st4" x1="10.38" y1="22.62" x2="68.89" y2="102.86"/>
	<line class="st4" x1="20.89" y1="98.2" x2="103.63" y2="50.3"/>
	<line class="st4" x1="83.04" y1="9.04" x2="83.04" y2="94.19"/>
	<line class="st4" x1="4.07" y1="33.84" x2="96.57" y2="64.67"/>
	<line class="st4" x1="1.45" y1="41.89" x2="97.97" y2="38.04"/>
</g>
</svg>
