<?xml version="1.0" encoding="utf-8"?>
<!-- Generator: Adobe Illustrator 24.0.1, SVG Export Plug-In . SVG Version: 6.00 Build 0)  -->
<svg version="1.1" id="Layer_1" xmlns="http://www.w3.org/2000/svg" xmlns:xlink="http://www.w3.org/1999/xlink" x="0px" y="0px"
	 viewBox="0 0 625 113" style="enable-background:new 0 0 625 113;" xml:space="preserve">
<style type="text/css">
	.st0{enable-background:new    ;}
	.st1{fill:#262626;}
	.st2{fill:#3BBCA6;}
	.st3{opacity:0.3;clip-path:url(#SVGID_2_);}
	.st4{fill:#FFFFFF;}
	.st5{fill:none;stroke:#FFFFFF;stroke-width:1.5;stroke-miterlimit:10;}
</style>
<g class="st0">
	<path class="st1" d="M119.75,29.1h19.11c17.16,0,26.76,8.58,26.76,26.52c0,18.64-8.19,29.17-26.76,29.17h-19.11V29.1z
		 M127.16,78.56h12.32c5.07,0,18.72-1.4,18.72-21.92c0-13.26-4.91-21.29-18.56-21.29h-12.48V78.56z"/>
	<path class="st1" d="M207.97,72.01c-1.79,8.89-8.19,13.73-17.24,13.73c-12.87,0-18.95-8.89-19.34-21.22
		c0-12.09,7.96-20.98,18.95-20.98c14.27,0,18.64,13.34,18.25,23.09H178.4c-0.23,7.02,3.74,13.26,12.56,13.26
		c5.46,0,9.28-2.65,10.45-7.88H207.97z M201.57,60.77c-0.31-6.32-5.07-11.39-11.62-11.39c-6.94,0-11.08,5.23-11.54,11.39H201.57z"/>
	<path class="st1" d="M249.85,72.01c-1.79,8.89-8.19,13.73-17.24,13.73c-12.87,0-18.95-8.89-19.34-21.22
		c0-12.09,7.96-20.98,18.95-20.98c14.27,0,18.64,13.34,18.25,23.09h-30.19c-0.23,7.02,3.74,13.26,12.56,13.26
		c5.46,0,9.28-2.65,10.45-7.88H249.85z M243.46,60.77c-0.31-6.32-5.07-11.39-11.62-11.39c-6.94,0-11.08,5.23-11.54,11.39H243.46z"/>
	<path class="st1" d="M257.57,44.47h6.63v5.46h0.16c2.18-4.45,7.33-6.4,12.87-6.4c12.4,0,18.56,9.83,18.56,21.22
		c0,11.39-6.08,20.98-18.41,20.98c-4.13,0-10.06-1.56-13.03-6.32h-0.16v20.83h-6.63V44.47z M276.29,49.39
		c-8.89,0-12.32,7.64-12.32,15.21c0,7.96,3.59,15.29,12.71,15.29c9.05,0,12.09-7.72,12.09-15.6
		C288.77,56.72,284.87,49.39,276.29,49.39z"/>
	<path class="st1" d="M305,29.1h7.41V84.8H305V29.1z"/>
	<path class="st1" d="M323.79,44.47h6.24v6.4h0.16c2.81-4.99,7.33-7.33,13.1-7.33c10.61,0,13.88,6.08,13.88,14.74V84.8h-6.63V57.5
		c0-4.91-3.12-8.11-8.19-8.11c-8.03,0-11.93,5.38-11.93,12.64V84.8h-6.63V44.47z"/>
	<path class="st1" d="M376.36,44.47h8.03v5.85h-8.03v25.04c0,3.04,0.86,3.59,4.99,3.59h3.04v5.85h-5.07c-6.86,0-9.59-1.4-9.59-8.81
		V50.32h-6.86v-5.85h6.86V32.38h6.63V44.47z"/>
	<path class="st1" d="M425.11,84.8h-6.24v-6.4h-0.16c-2.81,4.99-7.33,7.33-13.1,7.33c-10.61,0-13.88-6.08-13.88-14.74V44.47h6.63
		v27.3c0,4.91,3.12,8.11,8.19,8.11c8.03,0,11.93-5.38,11.93-12.64V44.47h6.63V84.8z"/>
	<path class="st1" d="M442.12,37.22h-6.63V29.1h6.63V37.22z M435.49,44.47h6.63V84.8h-6.63V44.47z"/>
	<path class="st1" d="M461.62,44.47h8.03v5.85h-8.03v25.04c0,3.04,0.86,3.59,4.99,3.59h3.04v5.85h-5.07c-6.86,0-9.59-1.4-9.59-8.81
		V50.32h-6.86v-5.85h6.86V32.38h6.63V44.47z"/>
	<path class="st1" d="M484,37.22h-6.63V29.1H484V37.22z M477.37,44.47H484V84.8h-6.63V44.47z"/>
	<path class="st1" d="M511.69,43.54c12.79,0,19.58,9.28,19.58,21.14c0,11.78-6.79,21.06-19.58,21.06
		c-12.79,0-19.58-9.28-19.58-21.06C492.11,52.82,498.9,43.54,511.69,43.54z M511.69,79.89c6.94,0,12.56-5.46,12.56-15.21
		c0-9.83-5.62-15.29-12.56-15.29s-12.56,5.46-12.56,15.29C499.13,74.43,504.75,79.89,511.69,79.89z"/>
	<path class="st1" d="M539.07,44.47h6.24v6.4h0.16c2.81-4.99,7.33-7.33,13.1-7.33c10.61,0,13.88,6.08,13.88,14.74V84.8h-6.63V57.5
		c0-4.91-3.12-8.11-8.19-8.11c-8.03,0-11.93,5.38-11.93,12.64V84.8h-6.63V44.47z"/>
	<path class="st1" d="M586.49,72.08c0.23,5.93,5.38,7.8,10.84,7.8c4.13,0,9.75-0.94,9.75-6.01c0-5.15-6.55-6.01-13.18-7.49
		c-6.55-1.48-13.18-3.67-13.18-11.39c0-8.11,8.03-11.47,15.05-11.47c8.89,0,15.99,2.81,16.54,12.64h-6.63
		c-0.47-5.15-4.99-6.79-9.36-6.79c-3.98,0-8.58,1.09-8.58,5.15c0,4.76,7.02,5.54,13.18,7.02c6.63,1.48,13.18,3.67,13.18,11.47
		c0,9.59-8.97,12.71-17.16,12.71c-9.05,0-16.69-3.67-17.08-13.65H586.49z"/>
</g>
<g>
	<g>
		<path class="st2" d="M55.45,5.68c-2.38-1.43-6.27-1.43-8.64,0L10.45,27.49c-2.38,1.43-4.32,4.86-4.32,7.63v43.92
			c0,2.77,1.94,6.21,4.32,7.63l36.36,21.81c2.38,1.43,6.27,1.43,8.64,0l36.35-21.8c2.38-1.43,4.32-4.86,4.32-7.63V35.12
			c0-2.77-1.94-6.21-4.32-7.63L55.45,5.68z"/>
	</g>
	<g>
		<g>
			<defs>
				<polygon id="SVGID_1_" points="50.95,57.37 50.95,111.37 95.95,84.37 95.95,30.37 				"/>
			</defs>
			<clipPath id="SVGID_2_">
				<use xlink:href="#SVGID_1_"  style="overflow:visible;"/>
			</clipPath>
			<g class="st3">
				<path d="M55.56,5.66c-2.38-1.43-6.27-1.43-8.64,0L10.56,27.48c-2.38,1.43-4.32,4.86-4.32,7.63v43.92c0,2.77,1.94,6.21,4.32,7.63
					l36.36,21.81c2.38,1.43,6.27,1.43,8.64,0l36.36-21.81c2.38-1.43,4.32-4.86,4.32-7.63V35.11c0-2.77-1.94-6.21-4.32-7.63
					L55.56,5.66z"/>
			</g>
		</g>
	</g>
	<circle class="st4" cx="23.2" cy="40.82" r="4.35"/>
	<circle class="st4" cx="53.82" cy="21.57" r="4.35"/>
	<circle class="st4" cx="82.69" cy="38.63" r="4.35"/>
	<circle class="st4" cx="83.04" cy="61.3" r="4.35"/>
	<circle class="st4" cx="51.55" cy="79.72" r="4.35"/>
	<line class="st5" x1="34.9" y1="8.26" x2="97.27" y2="48.2"/>
	<line class="st5" x1="67.84" y1="12.46" x2="3.37" y2="54.51"/>
	<line class="st5" x1="10.38" y1="22.62" x2="68.89" y2="102.86"/>
	<line class="st5" x1="20.89" y1="98.2" x2="103.63" y2="50.3"/>
	<line class="st5" x1="83.04" y1="9.04" x2="83.04" y2="94.19"/>
	<line class="st5" x1="4.07" y1="33.84" x2="96.57" y2="64.67"/>
	<line class="st5" x1="1.45" y1="41.89" x2="97.97" y2="38.04"/>
</g>
</svg>
